HIERARCHY
ROOT Hips
{
	OFFSET	0.00	0.00	0.00
	CHANNELS 6 Xposition Yposition Zposition Zrotation Xrotation Yrotation
	JOINT Spine
	{
		OFFSET	 0.00	0.01	 0.00
		CHANNELS 3 Zrotation Xrotation Yrotation
		JOINT Spine1
		{
			OFFSET	 0.00	 2.45913012437421	 0.00
			CHANNELS 3 Zrotation Xrotation Yrotation
            JOINT Neck
            {
                OFFSET	 0.00	 2.48462964506057	 0.00
                CHANNELS 3 Zrotation Xrotation Yrotation
                JOINT Head
                {
                    OFFSET	 0.00	 0.927524780924562	 0.00
                    CHANNELS 3 Zrotation Xrotation Yrotation
                    End Site 
                    {
                        OFFSET	 0.00	 1.14999962169752	 0.00
                    }
                }
            }
			JOINT LeftShoulder
			{
				OFFSET	 0.00	 2.48462964506057	 0.00
				CHANNELS 3 Zrotation Xrotation Yrotation
				JOINT LeftUpArm
				{
					OFFSET	 0.00	 1.24881979654096	 0.00
					CHANNELS 3 Zrotation Xrotation Yrotation
					JOINT LeftForeArm
					{
						OFFSET	 0.00	2.59758046908119	 0.00
						CHANNELS 3 Zrotation Xrotation Yrotation
						JOINT LeftHand
						{
							OFFSET	 0.00	2.45542024364365	 0.00
							CHANNELS 3 Zrotation Xrotation Yrotation
							JOINT LeftHandThumb 
							{
								OFFSET	 0.00	0.00	 0.00
								CHANNELS 3 Zrotation Xrotation Yrotation
								End Site
								{
									OFFSET	 0.00	0.00	1.00000003353624
								}
							}
							JOINT L_Wrist_End 
							{
								OFFSET	 0.00	0.99999967115358	 0.00
								CHANNELS 3 Zrotation Xrotation Yrotation
								End Site 
								{
									OFFSET	 0.00	 0.00	 0.00
								}
							}
						}
					}
				}
			}
			JOINT RightShoulder
			{
				OFFSET	 0.00	 2.48462964506057	 0.00
				CHANNELS 3 Zrotation Xrotation Yrotation
				JOINT RightUpArm
				{
					OFFSET	 0.00	 1.24881979654096	 0.00
					CHANNELS 3 Zrotation Xrotation Yrotation
					JOINT RightForeArm
					{
						OFFSET	 0.00	2.59758046908119	 0.00
						CHANNELS 3 Zrotation Xrotation Yrotation
						JOINT RightHand
						{
							OFFSET	 0.00	2.45542024364365	 0.00
							CHANNELS 3 Zrotation Xrotation Yrotation
							JOINT RightHandThumb 
							{
								OFFSET	 0.00	0.00	 0.00
								CHANNELS 3 Zrotation Xrotation Yrotation
								End Site
								{
									OFFSET	 0.00	0.00	1.00000003353624
								}
							}
							JOINT R_Wrist_End 
							{
								OFFSET	 0.00	0.99999967115358	 0.00
								CHANNELS 3 Zrotation Xrotation Yrotation
								End Site 
								{
									OFFSET	 0.00	 0.00	 0.00
								}
							}
						}
					}
				}
			}
		}
	}
	JOINT LeftUpLeg
	{
		OFFSET	 1.2719394002717	 0.00	 0.00
		CHANNELS 3 Zrotation Xrotation Yrotation
		JOINT LeftLowLeg
		{
			OFFSET	 0.00	-4.3429100912261	 0.00
			CHANNELS 3 Zrotation Xrotation Yrotation
			JOINT LeftFoot
			{
				OFFSET	 0.00	-4.48767017425826	 0.00
				CHANNELS 3 Zrotation Xrotation Yrotation
				JOINT LeftToeBase
                {
                    OFFSET	 0.00	0.00	 1.51507020887566
                    CHANNELS 3 Zrotation Xrotation Yrotation
                    End Site 
                    {
                        OFFSET	 0.00	0.00	 0.75000010571191
                    }
                }
			}
		}
	}
	JOINT RightUpLeg
	{
		OFFSET	 -1.2719393604653	 0.00	 0.00
		CHANNELS 3 Zrotation Xrotation Yrotation
		JOINT RightLowLeg
		{
			OFFSET	 0.00	-4.3429100912261	 0.00
			CHANNELS 3 Zrotation Xrotation Yrotation
			JOINT RightFoot
			{
				OFFSET	 0.00	-4.48767017425826	 0.00
				CHANNELS 3 Zrotation Xrotation Yrotation
				JOINT RightToeBase
                {
                    OFFSET	 0.00	0.00	 1.51507020887566
                    CHANNELS 3 Zrotation Xrotation Yrotation
                    End Site 
                    {
                        OFFSET	 0.00	0.00	 0.749999965609858
                    }
                }   
			}
		}
	}
}
MOTION 
Frames:	12 
Frame Time: 0.02 
 -0.2650090026855469 -3.7857901000976564 10.4981005859375 -60.9221 84.2714 63.4894 9.62451 -23.4603 -2.64 -11.5426 36.2691 7.55942 3.0461 23.9578 1.17264 19.2602 -69.3859 15.2338 -118.576096 3.74626 -8.37828 -37.9523 4.51214 41.5318 0.0 27.2523 0.0 9.36762 -4.25637 3.75109 0.0 0.0 0.0 0.0 0.0 0.0 122.7224 1.26163 0.678292 44.8323 11.1228 -30.7315 0.0 25.1009 0.0 -8.37466 -2.03211 7.77999 0.0 0.0 0.0 0.0 0.0 0.0 6.14524 10.8907 16.0126 0.0 0.626705 0.0 -7.1428 9.12249 5.38298 0.0 -11.5298195 0.0 8.13666 7.50413 7.9468 0.0 7.64392 0.0 18.9007 7.43459 -25.297 0.0 -11.95843 0.0 
  -0.26556800842285155 -3.784670104980469 10.497900390625 -60.9424 84.2746 63.5333 9.62831 -23.4466 -2.64228 -11.5347 36.2597 7.54549 3.06951 23.9446 1.14676 19.2755 -69.4158 15.2562 -118.5715 3.77082 -8.37555 -37.9448 4.49304 41.5223 0.0 27.2249 0.0 9.37764 -4.30736 3.73837 0.0 0.0 0.0 0.0 0.0 0.0 122.7354 1.24787 0.682561 44.8255 11.1242 -30.7278 0.0 25.101 0.0 -8.35732 -2.06253 7.81111 0.0 0.0 0.0 0.0 0.0 0.0 6.15192 10.875 15.9695 0.0 0.629519 0.0 -7.15037 9.11419 5.39564 0.0 -11.51889 0.0 8.13765 7.51246 7.90332 0.0 7.60828 0.0 18.8809 7.44685 -25.2828 0.0 -11.95852 0.0 
  -0.26600799560546873 -3.7838101196289062 10.4977001953125 -60.9198 84.2836 63.5239 9.62731 -23.4337 -2.65042 -11.5331 36.2645 7.53233 3.09059 23.9027 1.11665 19.2594 -69.4314 15.2556 -118.5735 3.76685 -8.3908 -37.9348 4.48948 41.5366 0.0 27.2256 0.0 9.38503 -4.36534 3.71414 0.0 0.0 0.0 0.0 0.0 0.0 122.746796 1.23861 0.687667 44.8148 11.1347 -30.7497 0.0 25.0971 0.0 -8.40115 -2.04842 7.81432 0.0 0.0 0.0 0.0 0.0 0.0 6.14812 10.8652 15.958 0.0 0.628307 0.0 -7.16578 9.1194 5.38821 0.0 -11.52664 0.0 8.13482 7.50889 7.91628 0.0 7.60431 0.0 18.8815 7.43045 -25.3064 0.0 -11.95971 0.0 
  -0.26600799560546873 -3.7838101196289062 10.4977001953125 -60.9198 84.2836 63.5239 9.62731 -23.4337 -2.65042 -11.5331 36.2645 7.53233 3.09059 23.9027 1.11665 19.2594 -69.4314 15.2556 -118.5735 3.76685 -8.3908 -37.9348 4.48948 41.5366 0.0 27.2256 0.0 9.38503 -4.36534 3.71414 0.0 0.0 0.0 0.0 0.0 0.0 122.746796 1.23861 0.687667 44.8148 11.1347 -30.7497 0.0 25.0971 0.0 -8.40115 -2.04842 7.81432 0.0 0.0 0.0 0.0 0.0 0.0 6.14812 10.8652 15.958 0.0 0.628307 0.0 -7.16578 9.1194 5.38821 0.0 -11.52664 0.0 8.13482 7.50889 7.91628 0.0 7.60431 0.0 18.8815 7.43045 -25.3064 0.0 -11.95971 0.0 
  -0.26680999755859375 -3.783179931640625 10.49780029296875 -61.0032 84.284 63.5939 9.64659 -23.4336 -2.63812 -11.5334 36.2816 7.53103 3.13182 23.8652 1.05359 19.1958 -69.4492 15.214 -118.5729 3.78439 -8.39527 -37.9106 4.46535 41.5437 0.0 27.2796 0.0 9.38286 -4.44597 3.6506 0.0 0.0 0.0 0.0 0.0 0.0 122.7538 1.23853 0.678688 44.7948 11.1464 -30.7471 0.0 25.1149 0.0 -8.3882 -2.10085 7.8605 0.0 0.0 0.0 0.0 0.0 0.0 6.15169 10.8597 15.9871 0.0 0.620774 0.0 -7.15108 9.131229 5.38058 0.0 -11.540091 0.0 8.14295 7.52 8.01526 0.0 7.56166 0.0 18.9053 7.41744 -25.3862 0.0 -11.95008 0.0 
  -0.2677099990844727 -3.782820129394531 10.49780029296875 -61.1602 84.2868 63.6891 9.67291 -23.4309 -2.60625 -11.5317 36.3023 7.55575 3.13651 23.8147 1.04477 19.2132 -69.4654 15.2244 -118.5462 3.80196 -8.44054 -37.9732 4.44497 41.5096 0.0 27.2384 0.0 9.36333 -4.40818 3.63068 0.0 0.0 0.0 0.0 0.0 0.0 122.7333 1.22535 0.686482 44.8075 11.1688 -30.7464 0.0 25.1048 0.0 -8.36537 -2.1233 7.7466 0.0 0.0 0.0 0.0 0.0 0.0 6.14692 10.8674 16.0537 0.0 0.600531 0.0 -7.15655 9.1365795 5.37526 0.0 -11.52173 0.0 8.14468 7.5046 8.09072 0.0 7.55828 0.0 18.9031 7.41548 -25.4015 0.0 -11.94893 0.0 
  -0.26893999099731447 -3.782090148925781 10.497900390625 -61.2199 84.2933 63.7083 9.67401 -23.4184 -2.61088 -11.5183 36.3059 7.55641 3.11106 23.8265 1.06106 19.2641 -69.5116 15.2402 -118.559 3.79943 -8.4357 -37.9775 4.46106 41.528 0.0 27.2321 0.0 9.35866 -4.29944 3.69759 0.0 0.0 0.0 0.0 0.0 0.0 122.7313 1.25638 0.684293 44.783 11.1448 -30.7112 0.0 25.1289 0.0 -8.372 -2.08028 7.68093 0.0 0.0 0.0 0.0 0.0 0.0 6.14241 10.8658 16.1123 0.0 0.596786 0.0 -7.15532 9.15238 5.35803 0.0 -11.53786 0.0 8.14031 7.49481 8.08736 0.0 7.55183 0.0 18.8809 7.43407 -25.3681 0.0 -11.9417305 0.0 
  -0.26893999099731447 -3.782090148925781 10.497900390625 -61.2199 84.2933 63.7083 9.67401 -23.4184 -2.61088 -11.5183 36.3059 7.55641 3.11106 23.8265 1.06106 19.2641 -69.5116 15.2402 -118.559 3.79943 -8.4357 -37.9775 4.46106 41.528 0.0 27.2321 0.0 9.35866 -4.29944 3.69759 0.0 0.0 0.0 0.0 0.0 0.0 122.7313 1.25638 0.684293 44.783 11.1448 -30.7112 0.0 25.1289 0.0 -8.372 -2.08028 7.68093 0.0 0.0 0.0 0.0 0.0 0.0 6.14241 10.8658 16.1123 0.0 0.596786 0.0 -7.15532 9.15238 5.35803 0.0 -11.53786 0.0 8.14031 7.49481 8.08736 0.0 7.55183 0.0 18.8809 7.43407 -25.3681 0.0 -11.9417305 0.0 
  -0.270669002532959 -3.7805099487304688 10.49780029296875 -61.2556 84.2962 63.7509 9.64448 -23.3849 -2.65491 -11.4912 36.3012 7.54066 3.12402 23.8056 1.03965 19.268 -69.5304 15.2224 -118.5762 3.79789 -8.45879 -37.985 4.48373 41.5792 0.0 27.2192 0.0 9.38884 -4.25832 3.79915 0.0 0.0 0.0 0.0 0.0 0.0 122.7465 1.24042 0.7111 44.756 11.161 -30.741 0.0 25.135 0.0 -8.36989 -2.05206 7.62737 0.0 0.0 0.0 0.0 0.0 0.0 6.15295 10.8388 16.0478 0.0 0.619132 0.0 -7.17165 9.13525 5.41879 0.0 -11.53189 0.0 8.14588 7.48879 8.00286 0.0 7.53259 0.0 18.8448 7.46848 -25.3131 0.0 -11.9436 0.0 
  -0.2726679992675781 -3.77906005859375 10.4977001953125 -61.2597 84.3045 63.7494 9.59852 -23.3606 -2.70674 -11.4678 36.307 7.54603 3.08874 23.7799 1.06565 19.2725 -69.5063 15.1387 -118.588196 3.82543 -8.48993 -38.0005 4.48698 41.605 0.0 27.2083 0.0 9.40977 -4.34788 3.78403 0.0 0.0 0.0 0.0 0.0 0.0 122.7384 1.23797 0.721317 44.7544 11.1793 -30.7104 0.0 25.1354 0.0 -8.3465 -2.01224 7.68109 0.0 0.0 0.0 0.0 0.0 0.0 6.15697 10.8181 16.0259 0.0 0.635993 0.0 -7.17984 9.129971 5.44892 0.0 -11.52226 0.0 8.14779 7.47741 7.98652 0.0 7.52889 0.0 18.8342 7.46963 -25.302 0.0 -11.95541 0.0 
  -0.2726679992675781 -3.77906005859375 10.4977001953125 -61.2597 84.3045 63.7494 9.59852 -23.3606 -2.70674 -11.4678 36.307 7.54603 3.08874 23.7799 1.06565 19.2725 -69.5063 15.1387 -118.588196 3.82543 -8.48993 -38.0005 4.48698 41.605 0.0 27.2083 0.0 9.40977 -4.34788 3.78403 0.0 0.0 0.0 0.0 0.0 0.0 122.7384 1.23797 0.721317 44.7544 11.1793 -30.7104 0.0 25.1354 0.0 -8.3465 -2.01224 7.68109 0.0 0.0 0.0 0.0 0.0 0.0 6.15697 10.8181 16.0259 0.0 0.635993 0.0 -7.17984 9.129971 5.44892 0.0 -11.52226 0.0 8.14779 7.47741 7.98652 0.0 7.52889 0.0 18.8342 7.46963 -25.302 0.0 -11.95541 0.0 
  -0.2743009948730469 -3.7788400268554687 10.4977001953125 -61.3409 84.2988 63.8177 9.56356 -23.3599 -2.76717 -11.4382 36.3279 7.5416 3.04819 23.774 1.10651 19.2896 -69.5 15.1507 -118.598 3.8099 -8.50153 -38.0268 4.51692 41.6331 0.0 27.1988 0.0 9.43382 -4.37619 3.8207 0.0 0.0 0.0 0.0 0.0 0.0 122.719604 1.27584 0.730143 44.7577 11.1595 -30.7118 0.0 25.1386 0.0 -8.39677 -1.98808 7.62678 0.0 0.0 0.0 0.0 0.0 0.0 6.17326 10.8155 16.0348 0.0 0.636163 0.0 -7.18887 9.12974 5.449 0.0 -11.53148 0.0 8.16249 7.4676 7.97048 0.0 7.53277 0.0 18.8121 7.49493 -25.2818 0.0 -11.948669 0.0 
